<?xml version="1.0" encoding="UTF-8" standalone="no"?>
<svg
   height="234.577"
   width="241.085"
   version="1.1"
   id="svg3"
   sodipodi:docname="deepin.svg"
   inkscape:version="1.4 (e7c3feb100, 2024-10-09)"
   xmlns:inkscape="http://www.inkscape.org/namespaces/inkscape"
   xmlns:sodipodi="http://sodipodi.sourceforge.net/DTD/sodipodi-0.dtd"
   xmlns="http://www.w3.org/2000/svg"
   xmlns:svg="http://www.w3.org/2000/svg">
  <defs
     id="defs3" />
  <sodipodi:namedview
     id="namedview3"
     pagecolor="#ffffff"
     bordercolor="#000000"
     borderopacity="0.25"
     inkscape:showpageshadow="2"
     inkscape:pageopacity="0.0"
     inkscape:pagecheckerboard="0"
     inkscape:deskcolor="#d1d1d1"
     inkscape:zoom="3.4103941"
     inkscape:cx="120.51393"
     inkscape:cy="117.2885"
     inkscape:window-width="1920"
     inkscape:window-height="1011"
     inkscape:window-x="0"
     inkscape:window-y="0"
     inkscape:window-maximized="1"
     inkscape:current-layer="svg3" />
  <g
     fill="none"
     fill-rule="evenodd"
     id="g3">
    <path
       d="M156.147 21.866c-14.96-5.31-30.287-6.744-45.159-5.398-17.244 1.324-25.662 6.52-25.164 5.58-28.198 9.795-52.038 30.864-63.08 60.413-19.662 52.623 8.186 110.817 62.188 129.976 54.023 19.16 113.743-7.974 133.405-60.596 19.668-52.623-8.18-110.809-62.19-129.975zm-67.66 181.056c-5.756-2.047-11.133-4.652-16.197-7.626 25.164 1.881 58.002-3.762 80.147-23.927 0 0 42.215-32.82 11.675-86.679 0 0 4.923 21.706-1.353 39.563 0 0-5.986 24.281-32.593 31.336-39.189 10.39-83.843-16.3-102.509-29.23-1.405-13.292-.156-27.025 4.85-40.425 7.42-19.853 21.37-35.344 38.415-45.748-4.26 29.006-.892 55.711 3.95 66.897 6.498 15 17.793 32.494 39.827 34.737 22.033 2.25 34.184-17.813 34.184-17.813 11.303-16.714 13.073-40.713 12.902-41.292-.172-.586-3.012-2.17-3.012-2.17-7.607 29.953-20.152 39.96-20.152 39.96-19.78 18.58-33.79 5.694-33.79 5.694-15.058-15.737-4.514-41.314-4.514-41.314C106.214 67.463 123.4 41.965 142.874 29c3.243.781 6.507 1.266 9.712 2.402 11.786 4.182 22.108 10.484 30.838 18.226-14.24 5.057-37.233 15.75-37.233 15.75-36.445 14.935-38.906 37.523-38.906 37.523-3.77 23.284 15.214 13.43 15.214 13.43 19.543-9.262 29.143-38.124 29.143-38.124-6.098-1.129-10.902.673-10.902.673-7.8 18.732-23.714 26.438-23.714 26.438-6.26 3.227-7.718-2.475-7.718-2.475-1.056-4.268 4.528-5 4.528-5 8.67-3.277 14.218-12.14 15.475-15.765 1.25-3.632 3.577-3.914 3.577-3.914 11.883-3.69 22.717-4.515 22.717-4.515 14.753-1.766 37.337 5.08 37.337 5.08 5.064 1.982 9.92 3.465 14.233 4.651 8.276 20.122 9.585 43.036 1.383 65.002-17.683 47.356-71.447 71.782-120.072 54.54z"
       opacity=".8"
       fill="#00b7ff"
       id="path3"
       style="fill:#000000;fill-opacity:1;opacity:1" />
  </g>
</svg>
