<svg width="1000" height="1000" viewBox="0 0 1000 1000" fill="none" xmlns="http://www.w3.org/2000/svg">
<path opacity="0.926" fill-rule="evenodd" clip-rule="evenodd" d="M545.762 1C547.725 1 549.69 1 551.654 1C560.15 17.8434 570.461 33.5445 582.586 48.1032C584.55 52.0286 586.515 55.9537 588.478 59.8791C606.316 82.6133 623.011 106.165 638.56 130.534C680.786 185.487 723.011 240.442 765.237 295.395C797.254 341.701 824.75 390.766 847.724 442.593C877.949 519.309 888.751 598.796 880.13 681.053C869.439 743.593 845.871 800.51 809.427 851.802C772.46 901.499 725.815 939.279 669.493 965.145C658.98 969.908 651.861 973.834 640.769 976.92C639.787 977.902 635.123 978.882 634.141 979.864C623.089 982.069 612.288 985.013 601.735 988.696C582.598 991.762 563.94 995.196 545.762 999C515.319 999 484.879 999 454.436 999C292.577 977.118 185.049 888.799 131.852 734.044C127.292 716.516 123.364 698.852 120.068 681.053C111.996 607.506 119.852 535.869 143.636 466.145C158.143 427.337 175.819 390.048 196.664 354.274C213.609 327.272 231.284 300.777 249.691 274.788C319.054 189.777 383.866 101.457 444.126 9.83186C446.335 6.15192 447.808 3.20796 455.909 1.73599L455.909 6.88791C457.873 54.9725 457.873 103.057 455.909 151.142C441.18 173.711 426.45 196.283 411.72 218.853C391.098 246.33 370.476 273.806 349.854 301.283C335.403 317.423 321.655 334.105 308.611 351.33C297.074 367.512 286.273 384.194 276.205 401.378C274.241 403.34 272.276 405.303 270.313 407.265C249.863 441.991 232.187 478.299 217.285 516.192C212.821 536.976 207.912 557.584 202.556 578.015C189.917 709.264 238.526 810.83 348.381 882.714C368.691 892.373 389.313 901.205 410.247 909.209C470.149 922.947 530.049 922.947 589.951 909.209C595.525 906.344 601.417 904.381 607.627 903.322C627.887 894.619 647.526 884.806 666.547 873.882C716.583 837.174 754.39 790.561 779.967 734.044C787.24 711.839 793.132 689.27 797.643 666.333C799.606 636.894 799.606 607.454 797.643 578.015C791.178 549.236 783.322 520.778 774.075 492.64C766.975 475.512 759.12 458.829 750.507 442.593C743.633 430.817 736.76 419.041 729.885 407.265C713.192 383.714 696.497 360.162 679.804 336.611C653.562 304.761 628.03 272.378 603.208 239.46C588.222 216.377 572.511 193.805 556.073 171.749C552.89 164.401 548.961 157.531 544.289 151.142C543.798 126.609 543.306 102.076 542.816 77.5428C542.856 51.8072 543.838 26.293 545.762 1Z" fill="black"/>
</svg>
