<svg xmlns="http://www.w3.org/2000/svg" width="512" height="512" viewBox="0 0 135.467 135.467"><title>Phosh.mobi Logo</title><defs><path id="a" d="M44 156h40v40H44z"/></defs><text xml:space="preserve" style="writing-mode:lr-tb;direction:ltr;white-space:pre;shape-inside:url(#a);display:inline;opacity:1;fill:#000;fill-opacity:1;stroke:none;stroke-width:2;stroke-linecap:round" transform="translate(0 -.198)scale(.26458)"><tspan x="44" y="206.617"><tspan dx="0 7.2363281 9.0234375 9.4453125 7.6171875">PHOSH</tspan></tspan></text><path d="M33.032 13.367c-.884-.03-1.733.22-2.463.888-3.298 3.238.104 7.994 1.928 9.928-1.944 3.615-2.617 7.046-2.803 16.626 5.08.376 7.865-.358 7.8.563-.128 1.82-3.761 3.42-7.855 4.515q-.005 1.242-.006 2.594c7.99.726 12.664-1.17 12.573.114-.186 2.635-6.676 4.33-12.39 5.314q.057.762.136 1.512c-6.568.728-9.595 4.626-9.595 9.886 0 .86.061 1.679.192 2.449A8.446 8.446 0 0 0 12.7 76.2v38.1a8.45 8.45 0 0 0 8.467 8.467H114.3a8.45 8.45 0 0 0 8.467-8.467V76.2a8.45 8.45 0 0 0-8.467-8.467h-1.849c.134-.825.195-1.69.195-2.58 0-4.394-2.579-7.036-7.338-8.077q.04-.28.077-.562c-6.102-.903-14.439-2.682-14.65-5.674.077-1.276 7.701 1.823 15.061.307q.038-1.221.037-2.464c-4.994-1.077-10.231-2.878-10.387-5.066-.075-1.066 3.665.084 10.357-.833-.133-11.105-.76-14.748-2.833-18.601 1.823-1.934 4.697-5.896 1.399-9.134-.731-.669-1.58-.919-2.464-.888-2.652.091-5.092 1.907-6.145 3.258-1.724-.476-3.883-.922-6.344-1.306-1.603 4.498-3.744 8.976-5.873 8.805-1.07-.086.372-3.299.737-9.466a121 121 0 0 0-12.313-.635h-8.468c-1.822 0-3.634.043-5.41.124.16 3.883.888 6.904.17 6.92-1.572.037-2.96-3.314-3.956-6.689q-1.577.12-3.08.277c1.064 7.67 3.544 11.422 2.364 11.675-2.572.552-6.084-5.885-8.388-10.874-2.109.352-3.97.749-5.492 1.169-1.053-1.35-4.022-3.96-6.674-4.052zm16.72 19.441c2.117 0 2.168 2.183 2.117 4.234-.05 2.036 0 3.704-2.117 3.704s-2.167-1.653-2.116-3.704c.05-2.037 0-4.234 2.116-4.234m35.962 0c2.117 0 2.168 2.183 2.117 4.234-.051 2.036 0 3.704-2.117 3.704s-2.168-1.653-2.117-3.704c.051-2.037 0-4.234 2.117-4.234M69.85 44.45a33 33 0 0 1 8.062.969c.885.193 2.666 1.165 2.994 1.633l.314.44c.113.157.268.477.344.71.235.719.119 1.926-.258 2.678-.45.9-1.548 2.202-2.637 3.131-2.33 1.987-6.614 4.364-9.545 5.296-.826.262-2.03.369-2.779.245-.794-.13-1.608-.373-2.495-.743a4 4 0 0 0-.427-.16c-.086.002-1.92-.975-2.371-1.264-2.187-1.4-3.253-2.204-4.862-3.67-.556-.506-1.205-1.145-1.444-1.42-.476-.55-.922-1.152-.925-1.251a.1.1 0 0 0-.058-.086c-.071-.029-.394-.638-.436-.822a2 2 0 0 0-.084-.268c-.123-.3-.148-.401-.195-.782-.075-.616.212-1.492.673-2.054.192-.233.969-.86 1.071-.863.022 0 .243-.102.492-.226.829-.412 2.575-.842 4.167-1.026 1.428-.165 5.471-.372 8.223-.445a48 48 0 0 1 2.176-.022M38.313 55.475c.392.005.596.096.608.333a1.3 1.3 0 0 1-.064.46 17 17 0 0 0-2.324-.597c.786-.115 1.38-.2 1.78-.196m-.5 10.021q.204-.01.397.019h.001c.428.06.79.246.917.51.187.393-.106 1.986-.397 2.52l-.858 1.263c-.312.402-.748.864-.969 1.028-.666.494-.924.307-.957-.692-.01-.294-.04-.723-.067-.952-.027-.23-.056-.796-.064-1.26-.014-.808-.006-.86.215-1.3.275-.548.76-.927 1.377-1.078q.201-.05.405-.058m-11.941.11a1.977 1.977 0 0 1 1.849 1.42c.14.46.139.513.007 1.295-.075.449-.186.994-.245 1.213-.059.218-.15.63-.202.913-.177.965-.444 1.107-.986.524-.18-.193-.514-.71-.743-1.147l-.608-1.36c-.19-.562-.225-2.153.005-2.506.156-.237.519-.36.923-.353zm5.748.166c.246.002.494.03.8.085.603.108.754.256.831.817.07.506-.213 2.45-.458 3.148-.197.563-.558 1.128-.842 1.319-.207.14-.637.132-.888-.015-.193-.112-.42-.618-.674-1.507-.51-1.782-.603-2.424-.443-3.048.126-.494.288-.626.887-.727.296-.05.54-.074.787-.072m74.706.005q.204-.01.398.019c.428.06.792.245.918.51.187.393-.106 1.986-.397 2.52l-.859 1.263c-.312.401-.747.864-.968 1.028-.666.494-.924.307-.957-.692-.01-.295-.04-.723-.068-.953-.027-.23-.055-.796-.063-1.26-.014-.807-.006-.86.214-1.3a2.05 2.05 0 0 1 1.379-1.078q.2-.048.403-.057m-11.94.109h.001a1.977 1.977 0 0 1 1.848 1.42c.14.461.14.514.008 1.296-.076.448-.186.994-.245 1.213-.059.218-.15.629-.202.913-.178.965-.444 1.106-.987.524-.18-.193-.514-.71-.743-1.148l-.606-1.359c-.191-.563-.227-2.154.004-2.506.155-.237.518-.361.922-.353zm6.277.167c.246.002.494.03.8.085.603.108.754.256.831.817.07.506-.213 2.45-.458 3.148-.197.563-.558 1.127-.842 1.319-.207.139-.637.132-.889-.015-.192-.112-.418-.618-.672-1.507-.51-1.783-.604-2.424-.444-3.048.126-.494.288-.627.888-.727.296-.05.54-.074.786-.072m-79.496 5.914H114.3a4.224 4.224 0 0 1 4.233 4.233v38.1a4.224 4.224 0 0 1-4.233 4.233H21.167a4.224 4.224 0 0 1-4.234-4.233V76.2a4.224 4.224 0 0 1 4.234-4.233m2.926 15.346a1.863 1.863 0 0 0-1.868 1.867v12.14c0 1.035.833 1.868 1.868 1.868h.498a1.863 1.863 0 0 0 1.867-1.868V89.18a1.863 1.863 0 0 0-1.867-1.867zm26.064.918v23.92h3.05v-10.418h1.916q3.083 0 4.64-1.818 1.461-1.687 1.461-4.966 0-3.213-1.46-4.933-1.59-1.785-4.641-1.785zm31.417 0q-.876 0-1.558.195a5.2 5.2 0 0 0-1.233.454 4.7 4.7 0 0 0-.909.584 6 6 0 0 0-.617.65q-1.363 1.752-1.362 4.933v10.288q0 3.18 1.362 4.934.52.649 1.558 1.265 1.04.617 2.76.617 1.752 0 2.758-.617 1.039-.615 1.558-1.265 1.363-1.753 1.363-4.934V95.047q0-3.18-1.363-4.934-.52-.648-1.558-1.265-1.006-.617-2.759-.617m13.177 0q-1.266 0-2.337.52a5.4 5.4 0 0 0-1.817 1.395q-.747.876-1.168 2.142-.39 1.266-.39 2.792 0 2.92 1.947 4.803.78.747 1.558 1.168.812.39 1.33.617l.585.26q.519.226 1.038.519.52.26.942.681.421.39.681.974t.26 1.428q0 .487-.098 1.136-.065.616-.356 1.168-.26.52-.78.91-.518.356-1.395.356-.91 0-1.33-.227-.423-.26-.585-.487-.746-.909-.746-3.018v-1.526h-3.051v1.526q0 3.213 1.396 4.933 1.46 1.85 4.316 1.85 2.76 0 4.35-2.045 1.362-1.818 1.362-4.576 0-2.921-2.012-4.771-.78-.747-1.59-1.104-.78-.39-1.234-.583l-.519-.228a11 11 0 0 1-1.136-.52 5.3 5.3 0 0 1-.941-.745 3.8 3.8 0 0 1-.682-1.04q-.26-.615-.26-1.46 0-.324.065-.941.066-.649.325-1.266.292-.648.811-1.103t1.461-.455q.325 0 .779.065.454.066.876.422.423.325.682 1.104.292.78.292 2.175v1.524h3.083V95.08q0-3.18-1.395-4.966-.52-.648-1.558-1.265-1.006-.617-2.759-.617m-32.131.032v23.92h3.05v-10.418h4.61v10.418h3.083v-23.92h-3.084v10.419h-4.608V88.263Zm39.304 0v23.92h3.05v-10.418h4.61v10.418h3.082v-23.92h-3.083v10.419h-4.609V88.263Zm-48.716 3.051h1.915q.746 0 1.298.13.584.13.941.52.39.39.584 1.103.195.714.195 1.882 0 2.207-.714 2.954-.13.163-.584.454t-1.72.292h-1.915zm28.366 0q.325 0 .779.065t.876.422q.423.325.682 1.104.292.747.292 2.142v10.288q0 1.428-.292 2.207-.26.747-.682 1.104a1.87 1.87 0 0 1-.876.39 6 6 0 0 1-.779.064 6 6 0 0 1-.812-.065q-.42-.065-.843-.39-.422-.356-.714-1.103-.26-.779-.26-2.207V95.047q0-1.395.26-2.142.293-.78.714-1.104.422-.357.843-.422.455-.065.812-.065" style="opacity:1;fill:#000;stroke-width:.529167;stroke-linecap:round"/></svg>