<?xml version="1.0" standalone="no"?>
<!DOCTYPE svg PUBLIC "-//W3C//DTD SVG 20010904//EN"
 "http://www.w3.org/TR/2001/REC-SVG-20010904/DTD/svg10.dtd">
<svg version="1.0" xmlns="http://www.w3.org/2000/svg"
 width="246.000000pt" height="229.000000pt" viewBox="0 0 246.000000 229.000000"
 preserveAspectRatio="xMidYMid meet">

<g transform="translate(0.000000,229.000000) scale(0.100000,-0.100000)"
fill="#000000" stroke="none">
<path d="M1255 2261 c-304 -79 -513 -217 -475 -315 25 -67 99 -60 274 27 72
36 201 95 286 132 85 36 165 76 178 88 31 29 24 58 -18 79 -49 25 -117 22
-245 -11z"/>
<path d="M1955 2219 c-233 -15 -394 -56 -557 -140 -163 -85 -203 -201 -94
-269 31 -19 35 -25 29 -53 -25 -136 -133 -234 -443 -403 -317 -172 -488 -332
-555 -519 -10 -27 -23 -55 -29 -62 -6 -6 -63 -29 -126 -52 -63 -22 -130 -46
-148 -53 l-33 -13 3 -95 3 -95 610 -232 611 -233 609 232 610 233 3 95 3 96
-338 127 c-373 139 -410 151 -533 167 -110 15 -171 8 -360 -42 -140 -37 -164
-41 -250 -37 -215 8 -331 2 -435 -24 -55 -14 -101 -24 -102 -23 -2 1 14 31 35
65 43 74 157 186 259 255 l72 49 76 -12 c225 -33 452 4 655 107 47 24 118 52
158 62 95 25 137 46 150 74 6 15 30 30 69 44 32 12 79 35 105 51 95 60 82 101
-32 101 -153 0 -271 -37 -568 -177 -73 -34 -92 -82 -40 -99 33 -10 8 -23 -93
-48 -105 -26 -247 -40 -297 -28 l-34 7 79 44 c124 70 214 134 274 194 60 60
113 150 124 209 l7 36 73 -1 c66 -2 75 -5 84 -24 14 -30 53 -54 104 -64 89
-17 336 28 490 88 147 57 159 157 21 172 l-56 6 71 49 c83 56 101 78 101 122
0 24 -9 40 -34 62 -55 48 -149 62 -331 51z"/>
<path d="M993 1821 c-72 -34 -168 -123 -179 -164 -9 -39 8 -71 49 -90 88 -42
202 8 289 127 36 51 39 117 6 140 -35 25 -96 19 -165 -13z"/>
<path d="M612 1720 c-59 -40 -132 -111 -132 -130 0 -15 36 -30 72 -30 76 0
198 89 198 145 0 30 -25 55 -55 55 -12 0 -50 -18 -83 -40z"/>
<path d="M1960 1373 c-76 -20 -214 -86 -245 -117 -76 -76 18 -122 197 -96 205
30 305 98 272 185 -17 44 -118 57 -224 28z"/>
</g>
</svg>
