<?xml version="1.0" standalone="no"?>
<!DOCTYPE svg PUBLIC "-//W3C//DTD SVG 20010904//EN"
 "http://www.w3.org/TR/2001/REC-SVG-20010904/DTD/svg10.dtd">
<svg version="1.0" xmlns="http://www.w3.org/2000/svg"
 width="512.000000pt" height="512.000000pt" viewBox="0 0 512.000000 512.000000"
 preserveAspectRatio="xMidYMid meet">
<metadata>
Created by potrace 1.16, written by Peter Selinger 2001-2019
</metadata>
<g transform="translate(0.000000,512.000000) scale(0.100000,-0.100000)"
fill="#000000" stroke="none">
<path d="M2260 4944 c-315 -178 -914 -522 -1540 -886 l-385 -224 -2 -1270 -3
-1269 1111 -640 c610 -352 1115 -639 1122 -637 7 2 508 290 1115 639 l1102
636 0 1271 -1 1271 -641 370 c-732 422 -1558 895 -1573 901 -5 2 -143 -71
-305 -162z m413 -321 c156 -80 241 -188 254 -320 8 -85 12 -89 90 -96 251 -21
522 -163 633 -333 36 -54 36 -54 -183 -15 -134 24 -335 28 -463 10 -190 -26
-409 -119 -541 -229 -91 -75 -183 -185 -225 -270 -31 -62 -33 -71 -33 -176 0
-107 1 -112 38 -187 26 -52 52 -89 82 -114 28 -23 41 -41 36 -46 -6 -6 -58
-10 -118 -10 -92 -1 -116 3 -161 23 -99 43 -190 178 -232 344 -33 129 -22 253
30 361 28 58 158 227 307 400 189 220 271 324 298 380 36 73 56 160 57 248 1
95 4 96 131 30z m-653 -465 c0 -7 -38 -57 -84 -111 -198 -231 -303 -436 -350
-686 -49 -258 18 -566 157 -718 106 -115 308 -162 440 -102 15 7 30 9 34 5 13
-13 -72 -169 -117 -216 -65 -66 -132 -90 -257 -90 -176 0 -310 49 -423 156
-94 90 -132 171 -316 683 -94 265 -114 303 -203 392 -42 43 -99 88 -128 103
-29 14 -53 30 -53 35 0 15 80 76 150 114 137 75 261 85 377 33 30 -15 61 -26
67 -26 7 0 19 15 28 33 20 43 143 174 222 236 85 68 198 127 287 151 87 22
169 26 169 8z m1370 -536 c63 -11 203 -37 310 -58 325 -62 483 -53 625 37 35
22 51 27 59 19 7 -7 11 -63 11 -158 0 -147 0 -148 -33 -214 -25 -51 -51 -84
-106 -133 l-72 -65 27 -58 c69 -141 109 -364 90 -507 -15 -113 -66 -255 -90
-255 -5 0 -16 19 -25 43 -79 214 -103 273 -143 347 -62 117 -123 200 -217 298
-137 143 -283 234 -463 289 -74 22 -108 26 -213 27 l-126 1 -76 -38 c-117 -57
-196 -157 -221 -277 l-13 -64 -32 40 c-48 57 -102 171 -108 230 -22 181 194
446 415 510 61 18 251 11 401 -14z m-2424 -875 c73 -212 175 -384 313 -529
184 -194 380 -297 625 -328 98 -12 190 0 265 37 106 51 207 184 219 289 3 26
9 43 16 41 20 -6 105 -141 122 -196 25 -80 15 -161 -30 -247 -77 -148 -194
-257 -332 -311 -116 -45 -255 -36 -664 42 -273 52 -397 68 -468 61 -71 -7
-188 -47 -244 -82 -21 -13 -42 -24 -47 -24 -31 0 -42 205 -16 303 27 103 55
143 172 244 l33 28 -30 60 c-16 33 -41 105 -56 160 -24 88 -28 118 -28 250 -1
129 2 160 21 220 13 39 32 86 44 105 l21 34 14 -27 c8 -15 31 -73 50 -130z
m2441 128 c119 -22 226 -80 305 -163 73 -78 119 -171 214 -437 187 -518 194
-535 298 -632 39 -38 93 -78 119 -91 26 -13 47 -30 47 -38 0 -20 -81 -77 -179
-127 -83 -41 -86 -42 -190 -42 -85 0 -113 4 -140 19 -19 10 -47 22 -62 26 -26
8 -30 5 -55 -37 -35 -60 -183 -209 -259 -260 -114 -77 -206 -114 -329 -133
-115 -18 -115 -18 43 169 298 354 396 780 266 1152 -63 182 -170 287 -326 320
-68 15 -185 7 -227 -15 -19 -10 -37 -15 -40 -11 -9 9 73 169 108 209 85 97
219 127 407 91z m-400 -600 c79 -24 144 -88 198 -198 56 -115 75 -189 75 -292
-1 -92 -11 -147 -42 -213 -30 -64 -167 -242 -338 -442 -174 -202 -257 -311
-282 -370 -29 -68 -48 -158 -48 -234 l0 -69 -36 6 c-54 9 -182 85 -239 142
-62 62 -94 126 -107 213 -11 75 -21 98 -38 94 -22 -5 -187 27 -271 54 -163 51
-296 138 -390 254 -27 34 -49 66 -49 71 0 13 27 11 134 -11 167 -34 311 -44
449 -32 292 27 525 129 702 308 118 119 178 225 191 337 14 115 -44 269 -128
341 -40 34 -45 42 -30 48 33 13 197 8 249 -7z"/>
</g>
</svg>
